<svg width="180" height="180" viewBox="0 0 180 180" fill="none" xmlns="http://www.w3.org/2000/svg">
<rect width="180" height="180" rx="28" fill="#161616"/>
<mask id="mask0_15_39" style="mask-type:luminance" maskUnits="userSpaceOnUse" x="14" y="14" width="152" height="152">
<path d="M99.6947 16.545L31.9612 43.9111C17.6233 49.704 10.6961 66.0232 16.489 80.3612L43.8551 148.095C49.648 162.433 65.9673 169.36 80.3052 163.567L148.039 136.201C162.377 130.408 169.304 114.089 163.511 99.7506L136.145 32.0172C130.352 17.6792 114.033 10.7521 99.6947 16.545Z" fill="white"/>
</mask>
<g mask="url(#mask0_15_39)">
<path d="M82.2999 114.206C80.1661 113.811 78.1319 113.013 76.4444 111.649C75.15 110.602 73.5799 109.319 71.5642 107.944C70.2442 106.947 67.441 105.475 65.2932 104.326C63.812 103.534 62.1628 102.693 61.5643 101.123C61.3924 100.672 61.2908 100.164 61.2003 99.5169C60.6677 97.1223 62.1559 94.3462 64.7734 93.2887C66.0642 92.7672 67.6431 92.9586 69.1383 93.2974C70.4305 93.5902 71.675 94.0595 72.8429 94.6852C73.5815 95.0808 74.3326 95.4876 74.8919 95.725C74.9044 95.7303 74.9168 95.7356 74.9291 95.7409C76.4847 96.4122 79.0387 98.4322 78.0419 97.0621V97.0621C76.9126 95.3435 75.3301 92.5032 73.3736 89.814C72.0933 87.7215 71.5683 87.4986 70.59 86.154C69.4607 84.4355 68.6336 83.4648 67.5043 81.7462C66.6771 80.7755 65.0946 77.9352 64.1164 76.5906C62.9871 74.872 61.6274 71.5067 62.5188 69.4067C63.1874 67.8317 65.2798 66.5513 67.0777 66.6949C69.4005 67.0613 71.5798 69.2255 72.407 70.1962C73.9102 71.7637 75.7156 74.079 77.2981 76.9193C79.5567 80.3564 82.9446 85.5121 83.3979 86.6338C82.7936 85.1382 81.3621 82.6718 81.1317 81.025C81.0524 79.7521 81.196 77.9543 82.5406 76.9761C82.8755 76.6907 83.2284 76.4498 83.593 76.2381C84.9576 75.4459 86.6404 75.1089 88.1754 75.474V75.474C89.1159 75.6977 89.9316 76.1557 90.5836 76.8695C91.163 77.5038 91.6951 78.2675 92.1502 79.0112C93.3451 80.964 93.4586 80.9028 92.8811 78.6875C92.5894 77.5683 92.3531 76.4467 92.4212 75.5938C92.4669 75.0219 92.9667 74.2665 93.4779 73.6185C93.9922 72.9665 94.5655 72.3778 95.2952 71.9814V71.9814C96.9527 71.081 99.0756 70.7892 100.783 71.59C101.032 71.7067 101.245 71.8354 101.395 71.968C102.062 72.4229 102.939 73.7305 103.755 75.0342C104.876 76.8255 105.095 76.7191 105.524 74.6497V74.6497C106.113 71.8018 111.046 68.9389 113.535 74.0228C114.592 76.6403 114.441 76.2664 115.197 78.136C115.952 80.0056 116.405 81.1274 117.009 82.6231C117.614 84.1188 118.599 87.6352 118.83 89.2819C118.892 90.287 118.866 92.413 118.597 94.2226C118.462 95.1316 118.163 96.0029 117.875 96.8755C117.235 98.8143 116.181 102.415 116.56 104.118C117.092 106.513 117.092 106.513 117.697 108.008V108.008C118.436 109.839 117.976 112.101 116.106 112.737C115.69 112.878 115.29 112.987 114.943 113.035C114.24 113.134 113.304 112.851 112.397 112.419C110.302 111.42 107.395 109.218 106.924 111.491V111.491C106.8 113.047 106.175 115.782 105.04 116.882C104.71 117.201 104.278 117.384 103.869 117.593C102.475 118.308 100.476 119.085 98.3908 119.865C95.5364 120.932 92.8237 118.207 90.0186 117.016V117.016C88.9613 116.567 87.431 115.918 86.0627 115.337C84.8534 114.824 83.5918 114.444 82.2999 114.206V114.206Z" fill="white"/>
</g>
<mask id="mask1_15_39" style="mask-type:luminance" maskUnits="userSpaceOnUse" x="14" y="14" width="152" height="152">
<path d="M99.6947 16.545L31.9612 43.9111C17.6233 49.704 10.6961 66.0232 16.489 80.3612L43.8551 148.095C49.648 162.433 65.9673 169.36 80.3052 163.567L148.039 136.201C162.377 130.408 169.304 114.089 163.511 99.7506L136.145 32.0172C130.352 17.6792 114.033 10.7521 99.6947 16.545Z" fill="white"/>
</mask>
<g mask="url(#mask1_15_39)">
<path d="M82.2999 114.206C80.1661 113.811 78.1319 113.013 76.4444 111.649C75.15 110.602 73.5799 109.319 71.5642 107.944C70.2442 106.947 67.441 105.475 65.2932 104.326C63.812 103.534 62.1628 102.693 61.5643 101.123C61.3924 100.672 61.2908 100.164 61.2003 99.5169C60.6677 97.1223 62.1559 94.3462 64.7734 93.2887C66.0642 92.7672 67.6431 92.9586 69.1383 93.2974C70.4305 93.5902 71.675 94.0595 72.8429 94.6852C73.5815 95.0808 74.3326 95.4876 74.8919 95.725C74.9044 95.7303 74.9168 95.7356 74.9291 95.7409C76.4847 96.4122 79.0387 98.4322 78.0419 97.0621V97.0621C76.9126 95.3435 75.3301 92.5032 73.3736 89.814C72.0933 87.7215 71.5683 87.4986 70.59 86.154C69.4607 84.4355 68.6336 83.4648 67.5043 81.7462C66.6771 80.7755 65.0946 77.9352 64.1164 76.5906C62.9871 74.872 61.6274 71.5067 62.5188 69.4067C63.1874 67.8317 65.2798 66.5513 67.0777 66.6949C69.4005 67.0613 71.5798 69.2255 72.407 70.1962C73.9102 71.7637 75.7156 74.079 77.2981 76.9193C79.5567 80.3564 82.9446 85.5121 83.3979 86.6338C82.7936 85.1382 81.3621 82.6718 81.1317 81.025C81.0524 79.7521 81.196 77.9543 82.5406 76.9761C82.8755 76.6907 83.2284 76.4498 83.593 76.2381C84.9576 75.4459 86.6404 75.1089 88.1754 75.474V75.474C89.1159 75.6977 89.9316 76.1557 90.5836 76.8695C91.163 77.5038 91.6951 78.2675 92.1502 79.0112C93.3451 80.964 93.4586 80.9028 92.8811 78.6875C92.5894 77.5683 92.3531 76.4467 92.4212 75.5938C92.4669 75.0219 92.9667 74.2665 93.4779 73.6185C93.9922 72.9665 94.5655 72.3778 95.2952 71.9814V71.9814C96.9527 71.081 99.0756 70.7892 100.783 71.59C101.032 71.7067 101.245 71.8354 101.395 71.968C102.062 72.4229 102.939 73.7305 103.755 75.0342C104.876 76.8255 105.095 76.7191 105.524 74.6497V74.6497C106.113 71.8018 111.046 68.9389 113.535 74.0228C114.592 76.6403 114.441 76.2664 115.197 78.136C115.952 80.0056 116.405 81.1274 117.009 82.6231C117.614 84.1188 118.599 87.6352 118.83 89.2819C118.892 90.287 118.866 92.413 118.597 94.2226C118.462 95.1316 118.163 96.0029 117.875 96.8755C117.235 98.8143 116.181 102.415 116.56 104.118C117.092 106.513 117.092 106.513 117.697 108.008V108.008C118.436 109.839 117.976 112.101 116.106 112.737C115.69 112.878 115.29 112.987 114.943 113.035C114.24 113.134 113.304 112.851 112.397 112.419C110.302 111.42 107.395 109.218 106.924 111.491V111.491C106.8 113.047 106.175 115.782 105.04 116.882C104.71 117.201 104.278 117.384 103.869 117.593C102.475 118.308 100.476 119.085 98.3908 119.865C95.5364 120.932 92.8237 118.207 90.0186 117.016V117.016C88.9613 116.567 87.431 115.918 86.0627 115.337C84.8534 114.824 83.5918 114.444 82.2999 114.206V114.206Z" stroke="#242424" stroke-width="0.75" stroke-linecap="round" stroke-linejoin="round"/>
</g>
<mask id="mask2_15_39" style="mask-type:luminance" maskUnits="userSpaceOnUse" x="14" y="14" width="152" height="152">
<path d="M99.6947 16.545L31.9612 43.9111C17.6233 49.704 10.6961 66.0232 16.489 80.3612L43.8551 148.095C49.648 162.433 65.9673 169.36 80.3052 163.567L148.039 136.201C162.377 130.408 169.304 114.089 163.511 99.7506L136.145 32.0172C130.352 17.6792 114.033 10.7521 99.6947 16.545Z" fill="white"/>
</mask>
<g mask="url(#mask2_15_39)">
<path d="M110.562 102.192L105.425 89.4782" stroke="#242424" stroke-width="0.75" stroke-linecap="round"/>
</g>
<mask id="mask3_15_39" style="mask-type:luminance" maskUnits="userSpaceOnUse" x="14" y="14" width="152" height="152">
<path d="M99.6947 16.545L31.9612 43.9111C17.6233 49.704 10.6961 66.0232 16.489 80.3612L43.8551 148.095C49.648 162.433 65.9673 169.36 80.3052 163.567L148.039 136.201C162.377 130.408 169.304 114.089 163.511 99.7506L136.145 32.0172C130.352 17.6792 114.033 10.7521 99.6947 16.545Z" fill="white"/>
</mask>
<g mask="url(#mask3_15_39)">
<path d="M103.083 105.213L97.5729 92.6508" stroke="#242424" stroke-width="0.75" stroke-linecap="round"/>
</g>
<mask id="mask4_15_39" style="mask-type:luminance" maskUnits="userSpaceOnUse" x="14" y="14" width="152" height="152">
<path d="M99.6947 16.545L31.9612 43.9111C17.6233 49.704 10.6961 66.0232 16.489 80.3612L43.8551 148.095C49.648 162.433 65.9673 169.36 80.3052 163.567L148.039 136.201C162.377 130.408 169.304 114.089 163.511 99.7506L136.145 32.0172C130.352 17.6792 114.033 10.7521 99.6947 16.545Z" fill="white"/>
</mask>
<g mask="url(#mask4_15_39)">
<path d="M90.4684 95.5212L95.6049 108.235" stroke="#242424" stroke-width="0.75" stroke-linecap="round"/>
</g>
</svg>
