<svg width="645" height="645" fill="none" xmlns="http://www.w3.org/2000/svg"><rect width="645" height="645" rx="64" fill="#000"/><rect x=".5" y=".5" width="644" height="644" rx="63.5" stroke="#fff" stroke-opacity=".3"/><path d="M481.601 642.85V1.075M320.889 641.779l.536-640.704M320.888 643.925l-.538-642.85M161.25 643.925l-1.072-642.85M481.639 642.85l-.538-641.775" stroke="#fff" stroke-opacity=".3"/><path d="M1.075 65.104c0-33.852 26.362-61.849 60.153-63.884l2.408-.145h96.539v535.35H1.075V65.105ZM160.175 1.075h161.25V473h-161.25V1.075ZM482.675 1.075h97.384c35.712 0 64.514 29.226 63.993 64.934l-.127 8.704V294.55h-161.25V1.075ZM321.425 1.075h161.25v378.4h-161.25z" fill="#fff"/><path stroke="#000" stroke-opacity=".4" d="M482.175 379.475V1.075M320.888 473.564V1.075M159.675 552.55V1.075"/><g filter="url(#a)"><mask id="b" maskUnits="userSpaceOnUse" x="68" y="256" width="533" height="154" fill="#000"><path fill="#fff" d="M68 256h533v154H68z"/><path d="m123.72 368-20.85-33.75V368h-33.3V257h33.3v58.05l21.15-31.65h38.7L131.07 326l32.4 42h-39.75Zm97.218-85.2c9.7 0 17.25 3.25 22.65 9.75 5.5 6.5 8.25 15.3 8.25 26.4V368h-33.15v-44.85c0-4-1.1-7.15-3.3-9.45-2.1-2.4-4.95-3.6-8.55-3.6-3.7 0-6.6 1.2-8.7 3.6-2.1 2.3-3.15 5.45-3.15 9.45V368h-33.3V257h33.3v39.3c2.6-4 6.05-7.25 10.35-9.75 4.4-2.5 9.6-3.75 15.6-3.75Zm95.339 0c9.7 0 17.25 3.25 22.65 9.75 5.5 6.5 8.25 15.3 8.25 26.4V368h-33.15v-44.85c0-4-1.1-7.15-3.3-9.45-2.1-2.4-4.95-3.6-8.55-3.6-3.7 0-6.6 1.2-8.7 3.6-2.1 2.3-3.15 5.45-3.15 9.45V368h-33.3V257h33.3v39.3c2.6-4 6.05-7.25 10.35-9.75 4.4-2.5 9.6-3.75 15.6-3.75ZM411.617 282.8c9.7 0 17.25 3.25 22.65 9.75 5.5 6.5 8.25 15.3 8.25 26.4V368h-33.15v-44.85c0-4-1.1-7.15-3.3-9.45-2.1-2.4-4.95-3.6-8.55-3.6-3.7 0-6.6 1.2-8.7 3.6-2.1 2.3-3.15 5.45-3.15 9.45V368h-33.3V257h33.3v39.3c2.6-4 6.05-7.25 10.35-9.75 4.4-2.5 9.6-3.75 15.6-3.75Zm69.39 16.2c3.4-4.9 7.55-8.8 12.45-11.7 4.9-3 10-4.5 15.3-4.5v35.55h-9.45c-6.3 0-10.95 1.1-13.95 3.3-2.9 2.2-4.35 6.1-4.35 11.7V368h-33.3v-84.6h33.3V299Zm60.77-4.05c2.1-3.9 5.1-6.95 9-9.15 4-2.3 8.75-3.45 14.25-3.45 6.6 0 12.55 1.75 17.85 5.25 5.3 3.4 9.45 8.4 12.45 15 3.1 6.5 4.65 14.2 4.65 23.1 0 8.9-1.55 16.65-4.65 23.25-3 6.5-7.15 11.5-12.45 15-5.3 3.4-11.25 5.1-17.85 5.1-5.5 0-10.25-1.1-14.25-3.3-3.9-2.3-6.9-5.4-9-9.3v52.05h-33.3V283.4h33.3v11.55Zm24.45 30.75c0-4.5-1.15-8-3.45-10.5-2.3-2.5-5.25-3.75-8.85-3.75-3.6 0-6.55 1.25-8.85 3.75s-3.45 6-3.45 10.5 1.15 8 3.45 10.5c2.3 2.5 5.25 3.75 8.85 3.75 3.6 0 6.55-1.25 8.85-3.75s3.45-6 3.45-10.5Z"/></mask><path d="m123.72 368-20.85-33.75V368h-33.3V257h33.3v58.05l21.15-31.65h38.7L131.07 326l32.4 42h-39.75Zm97.218-85.2c9.7 0 17.25 3.25 22.65 9.75 5.5 6.5 8.25 15.3 8.25 26.4V368h-33.15v-44.85c0-4-1.1-7.15-3.3-9.45-2.1-2.4-4.95-3.6-8.55-3.6-3.7 0-6.6 1.2-8.7 3.6-2.1 2.3-3.15 5.45-3.15 9.45V368h-33.3V257h33.3v39.3c2.6-4 6.05-7.25 10.35-9.75 4.4-2.5 9.6-3.75 15.6-3.75Zm95.339 0c9.7 0 17.25 3.25 22.65 9.75 5.5 6.5 8.25 15.3 8.25 26.4V368h-33.15v-44.85c0-4-1.1-7.15-3.3-9.45-2.1-2.4-4.95-3.6-8.55-3.6-3.7 0-6.6 1.2-8.7 3.6-2.1 2.3-3.15 5.45-3.15 9.45V368h-33.3V257h33.3v39.3c2.6-4 6.05-7.25 10.35-9.75 4.4-2.5 9.6-3.75 15.6-3.75Z" fill="#000"/><path d="M411.617 282.8c9.7 0 17.25 3.25 22.65 9.75 5.5 6.5 8.25 15.3 8.25 26.4V368h-33.15v-44.85c0-4-1.1-7.15-3.3-9.45-2.1-2.4-4.95-3.6-8.55-3.6-3.7 0-6.6 1.2-8.7 3.6-2.1 2.3-3.15 5.45-3.15 9.45V368h-33.3V257h33.3v39.3c2.6-4 6.05-7.25 10.35-9.75 4.4-2.5 9.6-3.75 15.6-3.75Zm69.39 16.2c3.4-4.9 7.55-8.8 12.45-11.7 4.9-3 10-4.5 15.3-4.5v35.55h-9.45c-6.3 0-10.95 1.1-13.95 3.3-2.9 2.2-4.35 6.1-4.35 11.7V368h-33.3v-84.6h33.3V299Zm60.77-4.05c2.1-3.9 5.1-6.95 9-9.15 4-2.3 8.75-3.45 14.25-3.45 6.6 0 12.55 1.75 17.85 5.25 5.3 3.4 9.45 8.4 12.45 15 3.1 6.5 4.65 14.2 4.65 23.1 0 8.9-1.55 16.65-4.65 23.25-3 6.5-7.15 11.5-12.45 15-5.3 3.4-11.25 5.1-17.85 5.1-5.5 0-10.25-1.1-14.25-3.3-3.9-2.3-6.9-5.4-9-9.3v52.05h-33.3V283.4h33.3v11.55Zm24.45 30.75c0-4.5-1.15-8-3.45-10.5-2.3-2.5-5.25-3.75-8.85-3.75-3.6 0-6.55 1.25-8.85 3.75s-3.45 6-3.45 10.5 1.15 8 3.45 10.5c2.3 2.5 5.25 3.75 8.85 3.75 3.6 0 6.55-1.25 8.85-3.75s3.45-6 3.45-10.5Z" fill="#fff"/><path d="m123.72 368-.85.526.293.474h.557v-1Zm-20.85-33.75.851-.526-1.851-2.995v3.521h1Zm0 33.75v1h1v-1h-1Zm-33.3 0h-1v1h1v-1Zm0-111v-1h-1v1h1Zm33.3 0h1v-1h-1v1Zm0 58.05h-1v3.296l1.832-2.74-.832-.556Zm21.15-31.65v-1h-.534l-.297.444.831.556Zm38.7 0 .803.596 1.186-1.596h-1.989v1ZM131.07 326l-.802-.596-.452.607.463.6.791-.611Zm32.4 42v1h2.035l-1.243-1.611-.792.611Zm-38.899-.526-20.85-33.75-1.701 1.052 20.85 33.75 1.701-1.052ZM101.87 334.25V368h2v-33.75h-2Zm1 32.75h-33.3v2h33.3v-2Zm-32.3 1V257h-2v111h2Zm-1-110h33.3v-2h-33.3v2Zm32.3-1v58.05h2V257h-2Zm1.832 58.606 21.15-31.65-1.663-1.112-21.15 31.65 1.663 1.112ZM124.02 284.4h38.7v-2h-38.7v2Zm37.898-1.596-31.65 42.6 1.605 1.192 31.65-42.6-1.605-1.192Zm-31.639 43.807 32.4 42 1.583-1.222-32.4-42-1.583 1.222ZM163.47 367h-39.75v2h39.75v-2Zm80.118-74.45-.77.639.006.007.764-.646Zm8.25 75.45v1h1v-1h-1Zm-33.15 0h-1v1h1v-1Zm-3.3-54.3-.753.658.015.017.015.016.723-.691Zm-17.25 0 .738.674.007-.008.007-.008-.752-.658Zm-3.15 54.3v1h1v-1h-1Zm-33.3 0h-1v1h1v-1Zm0-111v-1h-1v1h1Zm33.3 0h1v-1h-1v1Zm0 39.3h-1v3.373l1.838-2.828-.838-.545Zm10.35-9.75-.495-.87-.008.005.503.865Zm15.6-2.75c9.451 0 16.7 3.153 21.88 9.389l1.539-1.278c-5.62-6.764-13.471-10.111-23.419-10.111v2Zm21.886 9.396c5.306 6.271 8.014 14.818 8.014 25.754h2c0-11.264-2.793-20.317-8.487-27.046l-1.527 1.292Zm8.014 25.754V368h2v-49.05h-2Zm1 48.05h-33.15v2h33.15v-2Zm-32.15 1v-44.85h-2V368h2Zm0-44.85c0-4.188-1.157-7.61-3.578-10.141l-1.445 1.382c1.979 2.069 3.023 4.947 3.023 8.759h2Zm-3.548-10.109c-2.315-2.646-5.456-3.941-9.302-3.941v2c3.353 0 5.913 1.105 7.797 3.258l1.505-1.317Zm-9.302-3.941c-3.938 0-7.132 1.289-9.453 3.941l1.505 1.317c1.879-2.147 4.485-3.258 7.948-3.258v-2Zm-9.439 3.926c-2.312 2.532-3.411 5.948-3.411 10.124h2c0-3.824 1-6.708 2.888-8.776l-1.477-1.348Zm-3.411 10.124V368h2v-44.85h-2Zm1 43.85h-33.3v2h33.3v-2Zm-32.3 1V257h-2v111h2Zm-1-110h33.3v-2h-33.3v2Zm32.3-1v39.3h2V257h-2Zm1.838 39.845c2.511-3.863 5.844-7.006 10.014-9.431l-1.005-1.729c-4.43 2.576-7.997 5.933-10.686 10.07l1.677 1.09Zm10.006-9.426c4.223-2.399 9.246-3.619 15.106-3.619v-2c-6.141 0-11.518 1.28-16.094 3.881l.988 1.738Zm133.095 5.131-.769.639.006.007.763-.646Zm8.25 75.45v1h1v-1h-1Zm-33.15 0h-1v1h1v-1Zm-3.3-54.3-.752.658.014.017.016.016.722-.691Zm-17.25 0 .739.674.007-.008.007-.008-.753-.658Zm-3.15 54.3v1h1v-1h-1Zm-33.3 0h-1v1h1v-1Zm0-111v-1h-1v1h1Zm33.3 0h1v-1h-1v1Zm0 39.3h-1v3.373l1.839-2.828-.839-.545Zm10.35-9.75-.494-.87-.008.005.502.865Zm15.6-2.75c9.452 0 16.701 3.153 21.881 9.389l1.539-1.278c-5.62-6.764-13.472-10.111-23.42-10.111v2Zm21.887 9.396c5.306 6.271 8.013 14.818 8.013 25.754h2c0-11.264-2.792-20.317-8.486-27.046l-1.527 1.292Zm8.013 25.754V368h2v-49.05h-2Zm1 48.05h-33.15v2h33.15v-2Zm-32.15 1v-44.85h-2V368h2Zm0-44.85c0-4.188-1.156-7.61-3.577-10.141l-1.445 1.382c1.979 2.069 3.022 4.947 3.022 8.759h2Zm-3.547-10.109c-2.316-2.646-5.456-3.941-9.303-3.941v2c3.353 0 5.913 1.105 7.798 3.258l1.505-1.317Zm-9.303-3.941c-3.937 0-7.131 1.289-9.452 3.941l1.505 1.317c1.879-2.147 4.485-3.258 7.947-3.258v-2Zm-9.438 3.926c-2.312 2.532-3.412 5.948-3.412 10.124h2c0-3.824 1.001-6.708 2.889-8.776l-1.477-1.348Zm-3.412 10.124V368h2v-44.85h-2Zm1 43.85h-33.3v2h33.3v-2Zm-32.3 1V257h-2v111h2Zm-1-110h33.3v-2h-33.3v2Zm32.3-1v39.3h2V257h-2Zm1.839 39.845c2.511-3.863 5.843-7.006 10.014-9.431l-1.005-1.729c-4.43 2.576-7.997 5.933-10.686 10.07l1.677 1.09Zm10.005-9.426c4.224-2.399 9.247-3.619 15.106-3.619v-2c-6.141 0-11.517 1.28-16.094 3.881l.988 1.738Zm133.096 5.131-.769.639.006.007.763-.646Zm8.25 75.45v1h1v-1h-1Zm-33.15 0h-1v1h1v-1Zm-3.3-54.3-.752.658.014.017.016.016.722-.691Zm-17.25 0 .739.674.007-.008.007-.008-.753-.658Zm-3.15 54.3v1h1v-1h-1Zm-33.3 0h-1v1h1v-1Zm0-111v-1h-1v1h1Zm33.3 0h1v-1h-1v1Zm0 39.3h-1v3.373l1.839-2.828-.839-.545Zm10.35-9.75-.494-.87-.008.005.502.865Zm15.6-2.75c9.452 0 16.7 3.153 21.881 9.389l1.538-1.278c-5.619-6.764-13.471-10.111-23.419-10.111v2Zm21.887 9.396c5.306 6.271 8.013 14.818 8.013 25.754h2c0-11.264-2.792-20.317-8.486-27.046l-1.527 1.292Zm8.013 25.754V368h2v-49.05h-2Zm1 48.05h-33.15v2h33.15v-2Zm-32.15 1v-44.85h-2V368h2Zm0-44.85c0-4.188-1.156-7.61-3.577-10.141l-1.445 1.382c1.979 2.069 3.022 4.947 3.022 8.759h2Zm-3.547-10.109c-2.316-2.646-5.456-3.941-9.303-3.941v2c3.353 0 5.913 1.105 7.798 3.258l1.505-1.317Zm-9.303-3.941c-3.937 0-7.131 1.289-9.452 3.941l1.505 1.317c1.879-2.147 4.484-3.258 7.947-3.258v-2Zm-9.438 3.926c-2.312 2.532-3.412 5.948-3.412 10.124h2c0-3.824 1.001-6.708 2.889-8.776l-1.477-1.348Zm-3.412 10.124V368h2v-44.85h-2Zm1 43.85h-33.3v2h33.3v-2Zm-32.3 1V257h-2v111h2Zm-1-110h33.3v-2h-33.3v2Zm32.3-1v39.3h2V257h-2Zm1.839 39.845c2.511-3.863 5.843-7.006 10.014-9.431l-1.005-1.729c-4.43 2.576-7.997 5.933-10.686 10.07l1.677 1.09Zm10.005-9.426c4.224-2.399 9.247-3.619 15.106-3.619v-2c-6.141 0-11.517 1.28-16.094 3.881l.988 1.738ZM481.007 299h-1v3.195l1.822-2.625-.822-.57Zm12.45-11.7.509.861.007-.004.006-.004-.522-.853Zm15.3-4.5h1v-1h-1v1Zm0 35.55v1h1v-1h-1Zm-23.4 3.3-.591-.806-.007.004-.006.005.604.797Zm-4.35 46.35v1h1v-1h-1Zm-33.3 0h-1v1h1v-1Zm0-84.6v-1h-1v1h1Zm33.3 0h1v-1h-1v1Zm.822 16.17c3.322-4.788 7.367-8.586 12.137-11.409l-1.018-1.722c-5.03 2.977-9.285 6.978-12.763 11.991l1.644 1.14Zm12.15-11.417c4.757-2.912 9.678-4.353 14.778-4.353v-2c-5.5 0-10.779 1.559-15.822 4.647l1.044 1.706Zm13.778-5.353v35.55h2V282.8h-2Zm1 34.55h-9.45v2h9.45v-2Zm-9.45 0c-6.38 0-11.287 1.107-14.541 3.494l1.182 1.612c2.746-2.013 7.139-3.106 13.359-3.106v-2Zm-14.554 3.503c-3.261 2.474-4.746 6.757-4.746 12.497h2c0-5.46 1.415-8.977 3.954-10.903l-1.208-1.594Zm-4.746 12.497V368h2v-34.65h-2Zm1 33.65h-33.3v2h33.3v-2Zm-32.3 1v-84.6h-2V368h2Zm-1-83.6h33.3v-2h-33.3v2Zm32.3-1V299h2v-15.6h-2Zm61.77 11.55h-1l1.88.474-.88-.474Zm9-9.15.491.871.007-.004-.498-.867Zm32.1 1.8-.552.835.012.007.54-.842Zm12.45 15-.911.414.004.008.004.008.903-.43Zm0 46.35-.906-.425-.002.006.908.419Zm-12.45 15 .54.842.011-.008-.551-.834Zm-32.1 1.8-.508.861.013.008.013.007.482-.876Zm-9-9.3.88-.474-1.88.474h1Zm0 52.05v1h1v-1h-1Zm-33.3 0h-1v1h1v-1Zm0-125.1v-1h-1v1h1Zm33.3 0h1v-1h-1v1Zm21 31.8.735-.677-.735.677Zm-17.7 0-.736-.677.736.677Zm0 21-.736.677.736-.677Zm-2.42-40.776c2.009-3.732 4.874-6.645 8.611-8.753l-.983-1.742c-4.062 2.292-7.198 5.479-9.389 9.547l1.761.948Zm8.618-8.757c3.822-2.198 8.393-3.317 13.752-3.317v-2c-5.642 0-10.571 1.181-14.749 3.583l.997 1.734Zm13.752-3.317c6.412 0 12.169 1.697 17.298 5.084l1.103-1.668c-5.471-3.613-11.614-5.416-18.401-5.416v2Zm17.31 5.092c5.114 3.281 9.147 8.12 12.079 14.572l1.821-.828c-3.067-6.748-7.335-11.909-12.82-15.428l-1.08 1.684Zm12.087 14.588c3.023 6.338 4.553 13.885 4.553 22.67h2c0-9.015-1.57-16.868-4.748-23.53l-1.805.86Zm4.553 22.67c0 8.785-1.53 16.384-4.556 22.825l1.811.85c3.174-6.759 4.745-14.66 4.745-23.675h-2Zm-4.558 22.831c-2.933 6.353-6.968 11.2-12.093 14.585l1.102 1.668c5.474-3.615 9.739-8.768 12.807-15.415l-1.816-.838Zm-12.082 14.577c-5.131 3.292-10.892 4.942-17.31 4.942v2c6.781 0 12.92-1.75 18.39-5.258l-1.08-1.684Zm-17.31 4.942c-5.366 0-9.944-1.073-13.769-3.176l-.963 1.752c4.175 2.296 9.097 3.424 14.732 3.424v-2Zm-13.742-3.161c-3.747-2.21-6.616-5.177-8.628-8.913l-1.761.948c2.189 4.064 5.319 7.297 9.373 9.687l1.016-1.722Zm-10.508-8.439v52.05h2v-52.05h-2Zm1 51.05h-33.3v2h33.3v-2Zm-32.3 1V283.4h-2v125.1h2Zm-1-124.1h33.3v-2h-33.3v2Zm32.3-1v11.55h2V283.4h-2Zm26.45 42.3c0-4.668-1.196-8.439-3.715-11.177l-1.471 1.354c2.081 2.262 3.186 5.491 3.186 9.823h2Zm-3.715-11.177c-2.501-2.719-5.725-4.073-9.585-4.073v2c3.339 0 6.015 1.146 8.114 3.427l1.471-1.354Zm-9.585-4.073c-3.861 0-7.085 1.354-9.586 4.073l1.471 1.354c2.099-2.281 4.775-3.427 8.115-3.427v-2Zm-9.586 4.073c-2.519 2.738-3.714 6.509-3.714 11.177h2c0-4.332 1.104-7.561 3.185-9.823l-1.471-1.354Zm-3.714 11.177c0 4.668 1.195 8.439 3.714 11.177l1.471-1.354c-2.081-2.262-3.185-5.491-3.185-9.823h-2Zm3.714 11.177c2.501 2.719 5.725 4.073 9.586 4.073v-2c-3.34 0-6.016-1.146-8.115-3.427l-1.471 1.354Zm9.586 4.073c3.86 0 7.084-1.354 9.585-4.073l-1.471-1.354c-2.099 2.281-4.775 3.427-8.114 3.427v2Zm9.585-4.073c2.519-2.738 3.715-6.509 3.715-11.177h-2c0 4.332-1.105 7.561-3.186 9.823l1.471 1.354Z" fill="#000" mask="url(#b)"/></g><defs><filter id="a" x="64.57" y="256" width="540.406" height="161.5" filterUnits="userSpaceOnUse" color-interpolation-filters="sRGB"><feFlood flood-opacity="0" result="BackgroundImageFix"/><feColorMatrix in="SourceAlpha" values="0 0 0 0 0 0 0 0 0 0 0 0 0 0 0 0 0 0 127 0" result="hardAlpha"/><feOffset dy="4"/><feGaussianBlur stdDeviation="2"/><feComposite in2="hardAlpha" operator="out"/><feColorMatrix values="0 0 0 0 0 0 0 0 0 0 0 0 0 0 0 0 0 0 0.5 0"/><feBlend in2="BackgroundImageFix" result="effect1_dropShadow_25_199"/><feBlend in="SourceGraphic" in2="effect1_dropShadow_25_199" result="shape"/></filter></defs></svg>